<svg width="40" height="41" viewBox="0 0 40 41" fill="none" xmlns="http://www.w3.org/2000/svg">
<path d="M32.6786 4.80692C29.0756 1.92417 24.5982 0.354656 19.984 0.356936C14.5447 0.356936 9.46436 2.45246 5.66615 6.2578C1.99563 9.93993 -0.0159758 14.8015 9.55596e-05 19.9435C0.000220519 23.7133 1.10698 27.4003 3.18312 30.547L3.20009 30.5711C3.22509 30.6077 3.25098 30.6443 3.27687 30.68C3.30277 30.7157 3.33491 30.7622 3.34205 30.7738L3.36169 30.8095C3.46259 30.9881 3.54027 31.2059 3.47152 31.4255L1.82688 37.3773C1.76108 37.5986 1.72505 37.8277 1.71973 38.0586C1.71855 38.6658 1.95821 39.2488 2.38619 39.6796C2.81416 40.1104 3.39551 40.3539 4.00276 40.3568C4.32365 40.3462 4.63988 40.2769 4.9358 40.1523L10.9617 37.9773L11.0376 37.9478C11.2015 37.879 11.3776 37.8441 11.5554 37.8452C11.7193 37.8456 11.8818 37.8758 12.0349 37.9344C12.1795 37.9907 13.4929 38.4934 14.8786 38.8809C16.0304 39.2023 18.4268 39.6844 20.3045 39.6844C25.6304 39.6844 30.6036 37.6219 34.3072 33.8755C37.9786 30.1577 40 25.2158 40 19.9542C40.0005 18.6036 39.8574 17.2567 39.5732 15.9363C38.65 11.5953 36.2018 7.64172 32.6786 4.80692ZM11.4286 23.214C10.8636 23.214 10.3112 23.0464 9.8413 22.7325C9.37145 22.4185 9.00524 21.9723 8.78899 21.4502C8.57274 20.9282 8.51616 20.3537 8.6264 19.7994C8.73664 19.2452 9.00876 18.7361 9.40834 18.3366C9.80792 17.937 10.317 17.6649 10.8712 17.5546C11.4255 17.4444 11.9999 17.501 12.522 17.7172C13.0441 17.9335 13.4903 18.2997 13.8043 18.7695C14.1182 19.2394 14.2858 19.7918 14.2858 20.3568C14.2858 21.1146 13.9848 21.8413 13.4489 22.3771C12.9131 22.913 12.1864 23.214 11.4286 23.214ZM20 23.214C19.435 23.214 18.8826 23.0464 18.4127 22.7325C17.9429 22.4185 17.5766 21.9723 17.3604 21.4502C17.1441 20.9282 17.0876 20.3537 17.1978 19.7994C17.3081 19.2452 17.5802 18.7361 17.9797 18.3366C18.3793 17.937 18.8884 17.6649 19.4426 17.5546C19.9969 17.4444 20.5714 17.501 21.0934 17.7172C21.6155 17.9335 22.0617 18.2997 22.3757 18.7695C22.6896 19.2394 22.8572 19.7918 22.8572 20.3568C22.8572 21.1146 22.5562 21.8413 22.0203 22.3771C21.4845 22.913 20.7578 23.214 20 23.214ZM28.5715 23.214C28.0064 23.214 27.454 23.0464 26.9841 22.7325C26.5143 22.4185 26.1481 21.9723 25.9318 21.4502C25.7156 20.9282 25.659 20.3537 25.7692 19.7994C25.8795 19.2452 26.1516 18.7361 26.5512 18.3366C26.9507 17.937 27.4598 17.6649 28.0141 17.5546C28.5683 17.4444 29.1428 17.501 29.6648 17.7172C30.1869 17.9335 30.6331 18.2997 30.9471 18.7695C31.261 19.2394 31.4286 19.7918 31.4286 20.3568C31.4286 21.1146 31.1276 21.8413 30.5918 22.3771C30.0559 22.913 29.3292 23.214 28.5715 23.214Z" fill="black"/>
</svg>
