<svg width="40" height="30" viewBox="0 0 40 30" fill="none" xmlns="http://www.w3.org/2000/svg">
<path d="M40 3.5715C40 4.30257 39.721 5.034 39.1629 5.59114L16.3058 28.4483C15.75 29.009 15.0179 29.2858 14.2857 29.2858C13.5536 29.2858 12.8232 29.0068 12.2661 28.4487L0.8375 17.0202C0.279464 16.4644 0 15.7322 0 15.0001C0 13.3679 1.33482 12.1429 2.85714 12.1429C3.58821 12.1429 4.31964 12.4219 4.87679 12.98L14.2857 22.3929L35.125 1.55364C35.6786 0.99382 36.4107 0.714355 37.1429 0.714355C38.6696 0.714355 40 1.93757 40 3.5715Z" fill="#44465B"/>
</svg>
