<svg width="40" height="41" viewBox="0 0 40 41" fill="none" xmlns="http://www.w3.org/2000/svg">
<path d="M20 0.266113C8.95481 0.266113 0 9.22092 0 20.2661C0 31.3113 8.95481 40.2661 20 40.2661C31.0452 40.2661 40 31.3113 40 20.2661C40 9.22092 31.0452 0.266113 20 0.266113ZM29.2308 23.343H20C19.592 23.343 19.2007 23.181 18.9121 22.8924C18.6236 22.6039 18.4615 22.2126 18.4615 21.8046V7.95842C18.4615 7.5504 18.6236 7.15908 18.9121 6.87056C19.2007 6.58205 19.592 6.41996 20 6.41996C20.408 6.41996 20.7993 6.58205 21.0879 6.87056C21.3764 7.15908 21.5385 7.5504 21.5385 7.95842V20.2661H29.2308C29.6388 20.2661 30.0301 20.4282 30.3186 20.7167C30.6071 21.0052 30.7692 21.3965 30.7692 21.8046C30.7692 22.2126 30.6071 22.6039 30.3186 22.8924C30.0301 23.181 29.6388 23.343 29.2308 23.343Z" fill="black"/>
</svg>
