<svg width="40" height="33" viewBox="0 0 40 33" fill="none" xmlns="http://www.w3.org/2000/svg">
<path d="M34.6676 32.6896C34.4925 32.6899 34.3191 32.6555 34.1573 32.5884C33.9955 32.5214 33.8487 32.4229 33.7251 32.2988L4.39241 2.96601C4.15292 2.71393 4.02138 2.37827 4.02583 2.03059C4.03028 1.68292 4.17037 1.35074 4.41623 1.10487C4.6621 0.859008 4.99428 0.718916 5.34196 0.714465C5.68963 0.710014 6.02529 0.841555 6.27737 1.08104L35.6101 30.4138C35.7964 30.6003 35.9233 30.8378 35.9747 31.0964C36.0261 31.3549 35.9997 31.6229 35.8989 31.8665C35.798 32.11 35.6272 32.3182 35.408 32.4647C35.1889 32.6112 34.9312 32.6895 34.6676 32.6896ZM19.9729 27.3564C16.5155 27.3564 13.1814 26.3331 10.0631 24.3148C7.22402 22.4815 4.66823 19.8557 2.67161 16.7316V16.7249C4.33324 14.3441 6.1532 12.3308 8.10816 10.7075C8.12585 10.6927 8.14027 10.6745 8.15053 10.6538C8.16078 10.6332 8.16664 10.6106 8.16774 10.5876C8.16884 10.5646 8.16515 10.5416 8.1569 10.52C8.14865 10.4985 8.13603 10.4789 8.11983 10.4625L6.45986 8.80507C6.43037 8.77532 6.39075 8.75778 6.3489 8.75593C6.30706 8.75408 6.26605 8.76805 6.23404 8.79506C4.15741 10.545 2.22995 12.6917 0.477486 15.2049C0.175979 15.6377 0.00992757 16.1503 0.000431351 16.6776C-0.00906487 17.205 0.138423 17.7232 0.424153 18.1666C2.62494 21.6107 5.45738 24.5114 8.61399 26.5539C12.1681 28.8564 15.993 30.023 19.9729 30.023C22.1212 30.0163 24.2542 29.6623 26.2895 28.9747C26.3163 28.9656 26.3404 28.9498 26.3594 28.9288C26.3785 28.9078 26.3918 28.8822 26.3983 28.8546C26.4047 28.827 26.404 28.7982 26.3961 28.7709C26.3883 28.7437 26.3737 28.7189 26.3536 28.6989L24.5553 26.9006C24.5139 26.8602 24.4627 26.8313 24.4068 26.8166C24.3508 26.802 24.292 26.8022 24.2362 26.8172C22.8435 27.1759 21.411 27.357 19.9729 27.3564ZM39.5709 15.2399C37.3659 11.83 34.5051 8.9334 31.2985 6.8626C27.7511 4.56931 23.8345 3.35683 19.9729 3.35683C17.8474 3.36061 15.7377 3.72203 13.7322 4.42598C13.7055 4.43528 13.6816 4.45123 13.6627 4.47232C13.6439 4.49342 13.6307 4.51896 13.6244 4.54656C13.6182 4.57415 13.6191 4.60288 13.627 4.63004C13.6349 4.6572 13.6496 4.6819 13.6697 4.70181L15.4655 6.49761C15.5073 6.5387 15.5592 6.56805 15.616 6.58268C15.6728 6.59731 15.7324 6.59671 15.7888 6.58094C17.153 6.21193 18.5598 6.02448 19.9729 6.02345C23.3637 6.02345 26.6878 7.05926 29.8519 9.10673C32.7443 10.9734 35.3301 13.5966 37.3317 16.6899C37.3332 16.6918 37.334 16.6942 37.334 16.6966C37.334 16.699 37.3332 16.7013 37.3317 16.7032C35.8788 18.9906 34.0758 21.0358 31.9885 22.764C31.9706 22.7787 31.956 22.797 31.9456 22.8177C31.9352 22.8384 31.9292 22.861 31.9281 22.8841C31.9269 22.9073 31.9305 22.9304 31.9388 22.952C31.947 22.9737 31.9597 22.9933 31.976 23.0098L33.6343 24.6673C33.6637 24.6969 33.703 24.7144 33.7447 24.7164C33.7864 24.7185 33.8272 24.7048 33.8593 24.6781C36.0876 22.8019 38.0164 20.5965 39.5792 18.1382C39.8554 17.705 40.0015 17.2016 40 16.6879C39.9985 16.1741 39.8496 15.6715 39.5709 15.2399Z" fill="black"/>
<path d="M20.0015 8.68994C19.4023 8.68962 18.8049 8.75671 18.2207 8.88994C18.1912 8.89607 18.1639 8.91008 18.1417 8.93049C18.1196 8.9509 18.1033 8.97694 18.0948 9.00584C18.0862 9.03474 18.0857 9.06542 18.0932 9.09461C18.1007 9.1238 18.116 9.1504 18.1374 9.1716L27.5197 18.5514C27.5409 18.5728 27.5675 18.5881 27.5967 18.5956C27.6259 18.6031 27.6566 18.6026 27.6855 18.594C27.7144 18.5855 27.7404 18.5692 27.7608 18.5471C27.7812 18.5249 27.7952 18.4976 27.8014 18.4681C28.0685 17.2965 28.0682 16.0797 27.8006 14.9082C27.533 13.7367 27.0049 12.6406 26.2556 11.7012C25.5062 10.7618 24.5549 10.0032 23.4722 9.48192C22.3894 8.96061 21.2032 8.68992 20.0015 8.68994ZM12.4833 14.8282C12.4621 14.8067 12.4355 14.7915 12.4063 14.784C12.3772 14.7765 12.3465 14.777 12.3176 14.7856C12.2887 14.7941 12.2626 14.8103 12.2422 14.8325C12.2218 14.8547 12.2078 14.882 12.2017 14.9115C11.8995 16.2318 11.9374 17.6071 12.312 18.9087C12.6865 20.2103 13.3854 21.3955 14.3431 22.3532C15.3008 23.3109 16.486 24.0098 17.7876 24.3844C19.0892 24.7589 20.4646 24.7969 21.7848 24.4946C21.8143 24.4885 21.8416 24.4745 21.8638 24.4541C21.886 24.4337 21.9022 24.4076 21.9108 24.3787C21.9193 24.3498 21.9199 24.3192 21.9124 24.29C21.9049 24.2608 21.8896 24.2342 21.8682 24.213L12.4833 14.8282Z" fill="black"/>
</svg>
