<svg width="44" height="29" viewBox="0 0 44 29" fill="none" xmlns="http://www.w3.org/2000/svg">
<path d="M21.9689 1.68945C15.0103 1.68945 7.87216 5.71696 2.25275 13.772C2.09235 14.0044 2.00446 14.2792 2.00016 14.5616C1.99587 14.844 2.07538 15.1213 2.22865 15.3585C6.54632 22.1171 13.5889 27.4026 21.9689 27.4026C30.2578 27.4026 37.445 22.1011 41.7707 15.3273C41.9204 15.0947 42 14.824 42 14.5474C42 14.2708 41.9204 14.0001 41.7707 13.7675C37.4352 7.07136 30.1953 1.68945 21.9689 1.68945Z" stroke="black" stroke-width="2.85702" stroke-linecap="round" stroke-linejoin="round"/>
<path d="M21.999 21.6889C25.9437 21.6889 29.1416 18.4911 29.1416 14.5464C29.1416 10.6016 25.9437 7.40381 21.999 7.40381C18.0543 7.40381 14.8564 10.6016 14.8564 14.5464C14.8564 18.4911 18.0543 21.6889 21.999 21.6889Z" stroke="black" stroke-width="2.85702" stroke-miterlimit="10"/>
</svg>
