<svg width="40" height="41" viewBox="0 0 40 41" fill="none" xmlns="http://www.w3.org/2000/svg">
<path d="M36.4205 7.5H34.2937C34.2915 7.5 34.2895 7.50085 34.288 7.50235C34.2865 7.50386 34.2856 7.5059 34.2856 7.50804V34.6429C34.2856 35.4006 34.5867 36.1273 35.1225 36.6632C35.6583 37.199 36.385 37.5 37.1428 37.5C37.9005 37.5 38.6273 37.199 39.1631 36.6632C39.6989 36.1273 39.9999 35.4006 39.9999 34.6429V11.0795C39.9999 10.1301 39.6228 9.21968 38.9515 8.5484C38.2802 7.87712 37.3698 7.5 36.4205 7.5Z" fill="black"/>
<path d="M31.4286 34.6426V3.92836C31.4286 3.45936 31.3362 2.99494 31.1567 2.56164C30.9772 2.12833 30.7142 1.73462 30.3825 1.40298C30.0509 1.07134 29.6572 0.808273 29.2239 0.628792C28.7906 0.449311 28.3261 0.356934 27.8571 0.356934H3.57143C2.62423 0.356934 1.71582 0.733208 1.04605 1.40298C0.376274 2.07275 0 2.98116 0 3.92836V35.3569C0 36.683 0.526784 37.9548 1.46447 38.8925C2.40215 39.8301 3.67392 40.3569 5 40.3569H35.6116C35.6251 40.3571 35.6385 40.3545 35.651 40.3494C35.6636 40.3442 35.6749 40.3367 35.6845 40.3271C35.694 40.3176 35.7016 40.3062 35.7067 40.2937C35.7118 40.2812 35.7144 40.2678 35.7143 40.2543C35.7142 40.2318 35.7068 40.21 35.693 40.1922C35.6793 40.1745 35.6601 40.1617 35.6384 40.156C34.4299 39.8245 33.3637 39.1056 32.6032 38.1097C31.8427 37.1137 31.4301 35.8957 31.4286 34.6426ZM5.71429 8.92836C5.71429 8.54948 5.8648 8.18612 6.1327 7.91821C6.40061 7.6503 6.76398 7.49979 7.14286 7.49979H12.8571C13.236 7.49979 13.5994 7.6503 13.8673 7.91821C14.1352 8.18612 14.2857 8.54948 14.2857 8.92836V14.6426C14.2857 15.0215 14.1352 15.3849 13.8673 15.6528C13.5994 15.9207 13.236 16.0712 12.8571 16.0712H7.14286C6.76398 16.0712 6.40061 15.9207 6.1327 15.6528C5.8648 15.3849 5.71429 15.0215 5.71429 14.6426V8.92836ZM24.2857 33.2141H7.18303C6.41429 33.2141 5.75446 32.623 5.71607 31.8543C5.70676 31.6611 5.73677 31.4681 5.80427 31.2868C5.87177 31.1056 5.97537 30.94 6.10877 30.8C6.24217 30.66 6.40261 30.5485 6.58036 30.4724C6.75811 30.3962 6.94948 30.3569 7.14286 30.3569H24.2455C25.0143 30.3569 25.6741 30.948 25.7125 31.7168C25.7218 31.9099 25.6918 32.1029 25.6243 32.2842C25.5568 32.4654 25.4532 32.631 25.3198 32.771C25.1864 32.911 25.026 33.0225 24.8482 33.0986C24.6705 33.1748 24.4791 33.2141 24.2857 33.2141ZM24.2857 27.4998H7.18303C6.41429 27.4998 5.75446 26.9087 5.71607 26.14C5.70676 25.9468 5.73677 25.7538 5.80427 25.5726C5.87177 25.3913 5.97537 25.2257 6.10877 25.0857C6.24217 24.9457 6.40261 24.8343 6.58036 24.7581C6.75811 24.6819 6.94948 24.6427 7.14286 24.6426H24.2455C25.0143 24.6426 25.6741 25.2337 25.7125 26.0025C25.7218 26.1956 25.6918 26.3887 25.6243 26.5699C25.5568 26.7511 25.4532 26.9167 25.3198 27.0567C25.1864 27.1967 25.026 27.3082 24.8482 27.3843C24.6705 27.4605 24.4791 27.4998 24.2857 27.4998ZM24.2857 21.7855H7.18303C6.41429 21.7855 5.75446 21.1944 5.71607 20.4257C5.70676 20.2325 5.73677 20.0395 5.80427 19.8583C5.87177 19.6771 5.97537 19.5114 6.10877 19.3714C6.24217 19.2314 6.40261 19.12 6.58036 19.0438C6.75811 18.9677 6.94948 18.9284 7.14286 18.9284H24.2455C25.0143 18.9284 25.6741 19.5194 25.7125 20.2882C25.7218 20.4813 25.6918 20.6744 25.6243 20.8556C25.5568 21.0368 25.4532 21.2024 25.3198 21.3424C25.1864 21.4824 25.026 21.5939 24.8482 21.67C24.6705 21.7462 24.4791 21.7855 24.2857 21.7855ZM24.2857 16.0712H18.6116C17.8429 16.0712 17.183 15.4801 17.1446 14.7114C17.1353 14.5182 17.1653 14.3252 17.2328 14.144C17.3003 13.9628 17.4039 13.7971 17.5373 13.6571C17.6707 13.5171 17.8312 13.4057 18.0089 13.3295C18.1867 13.2534 18.378 13.2141 18.5714 13.2141H24.2455C25.0143 13.2141 25.6741 13.8051 25.7125 14.5739C25.7218 14.7671 25.6918 14.9601 25.6243 15.1413C25.5568 15.3225 25.4532 15.4881 25.3198 15.6281C25.1864 15.7681 25.026 15.8796 24.8482 15.9558C24.6705 16.0319 24.4791 16.0712 24.2857 16.0712ZM24.2857 10.3569H18.6116C17.8429 10.3569 17.183 9.76586 17.1446 8.99711C17.1353 8.80396 17.1653 8.61092 17.2328 8.4297C17.3003 8.24849 17.4039 8.08286 17.5373 7.94286C17.6707 7.80286 17.8312 7.69141 18.0089 7.61525C18.1867 7.53909 18.378 7.49981 18.5714 7.49979H24.2455C25.0143 7.49979 25.6741 8.09086 25.7125 8.85961C25.7218 9.05277 25.6918 9.2458 25.6243 9.42702C25.5568 9.60824 25.4532 9.77386 25.3198 9.91386C25.1864 10.0539 25.026 10.1653 24.8482 10.2415C24.6705 10.3176 24.4791 10.3569 24.2857 10.3569Z" fill="black"/>
</svg>
