<svg width="40" height="47" viewBox="0 0 40 47" fill="none" xmlns="http://www.w3.org/2000/svg">
<path d="M39.6154 21.8046H26.1538C24.9298 21.8046 23.7558 21.3183 22.8903 20.4528C22.0247 19.5872 21.5385 18.4133 21.5385 17.1892V3.72765C21.5385 3.62565 21.4979 3.52782 21.4258 3.45569C21.3537 3.38356 21.2559 3.34304 21.1538 3.34304H16.0337C15.8541 3.01048 15.6449 2.69478 15.4087 2.39977C14.3 1.02381 12.6529 0.266113 10.7692 0.266113C7.14615 0.266113 4.61538 3.11323 4.61538 7.18919V21.0353C4.61538 23.4392 6.57115 24.8815 8.46154 24.8815C8.96816 24.887 9.47079 24.7913 9.93992 24.6C10.4091 24.4087 10.8353 24.1256 11.1935 23.7673C11.5518 23.4091 11.8349 22.9829 12.0262 22.5137C12.2175 22.0446 12.3132 21.542 12.3077 21.0353V6.41996C12.3077 6.01193 12.1456 5.62062 11.8571 5.3321C11.5686 5.04359 11.1773 4.8815 10.7692 4.8815C10.3612 4.8815 9.96989 5.04359 9.68137 5.3321C9.39286 5.62062 9.23077 6.01193 9.23077 6.41996V21.0353C9.23411 21.1373 9.2165 21.2388 9.17903 21.3336C9.14156 21.4285 9.08502 21.5146 9.01291 21.5867C8.9408 21.6588 8.85466 21.7154 8.75982 21.7528C8.66498 21.7903 8.56346 21.8079 8.46154 21.8046C8.24712 21.8046 7.69231 21.6661 7.69231 21.0353V7.18919C7.69231 5.32958 8.50096 3.34304 10.7692 3.34304C13.624 3.34304 13.8462 6.24207 13.8462 7.12957V20.4709C13.8462 22.1488 13.3202 23.6661 12.3644 24.7459C11.3942 25.843 10.0452 26.42 8.46154 26.42C6.87788 26.42 5.52885 25.843 4.55865 24.7459C3.60289 23.6661 3.07692 22.1488 3.07692 20.4709V12.5738C3.07692 12.1658 2.91484 11.7745 2.62632 11.4859C2.3378 11.1974 1.94649 11.0353 1.53846 11.0353C1.13044 11.0353 0.739122 11.1974 0.450605 11.4859C0.162087 11.7745 0 12.1658 0 12.5738V20.4709C0 25.4238 3.19135 29.0892 7.69231 29.4642V40.2661C7.69231 41.8982 8.34066 43.4635 9.49473 44.6175C10.6488 45.7716 12.2141 46.42 13.8462 46.42H33.8462C35.4783 46.42 37.0435 45.7716 38.1976 44.6175C39.3517 43.4635 40 41.8982 40 40.2661V22.1892C40 22.0872 39.9595 21.9894 39.8873 21.9172C39.8152 21.8451 39.7174 21.8046 39.6154 21.8046Z" fill="black"/>
<path d="M26.1537 18.7278H38.6354C38.6733 18.7276 38.7104 18.7163 38.7418 18.6951C38.7733 18.674 38.7978 18.644 38.8123 18.609C38.8268 18.5739 38.8306 18.5354 38.8233 18.4982C38.8159 18.461 38.7977 18.4268 38.771 18.3999L24.9431 4.57204C24.9162 4.5453 24.882 4.52712 24.8448 4.51976C24.8076 4.51241 24.7691 4.51622 24.7341 4.53071C24.699 4.5452 24.669 4.56972 24.6479 4.6012C24.6268 4.63267 24.6154 4.6697 24.6152 4.70761V17.1893C24.6152 17.5974 24.7773 17.9887 25.0658 18.2772C25.3544 18.5657 25.7457 18.7278 26.1537 18.7278Z" fill="black"/>
</svg>
