<svg width="40" height="52" viewBox="0 0 40 52" fill="none" xmlns="http://www.w3.org/2000/svg">
<path d="M39.5455 22.1751H23.6364C22.1897 22.1751 20.8023 21.6004 19.7794 20.5775C18.7565 19.5546 18.1818 18.1672 18.1818 16.7206V0.811479C18.1818 0.690926 18.1339 0.575311 18.0487 0.490067C17.9634 0.404823 17.8478 0.356934 17.7273 0.356934H7.27273C5.34388 0.356934 3.49403 1.12317 2.13013 2.48707C0.766231 3.85097 0 5.70081 0 7.62966V43.9933C0 45.9221 0.766231 47.772 2.13013 49.1359C3.49403 50.4998 5.34388 51.266 7.27273 51.266H32.7273C34.6561 51.266 36.506 50.4998 37.8699 49.1359C39.2338 47.772 40 45.9221 40 43.9933V22.6297C40 22.5091 39.9521 22.3935 39.8669 22.3082C39.7816 22.223 39.666 22.1751 39.5455 22.1751ZM29.0909 40.3569H10.9091C10.4269 40.3569 9.96442 40.1654 9.62344 39.8244C9.28247 39.4834 9.09091 39.021 9.09091 38.5388C9.09091 38.0565 9.28247 37.5941 9.62344 37.2531C9.96442 36.9121 10.4269 36.7206 10.9091 36.7206H29.0909C29.5731 36.7206 30.0356 36.9121 30.3766 37.2531C30.7175 37.5941 30.9091 38.0565 30.9091 38.5388C30.9091 39.021 30.7175 39.4834 30.3766 39.8244C30.0356 40.1654 29.5731 40.3569 29.0909 40.3569ZM29.0909 31.266H10.9091C10.4269 31.266 9.96442 31.0745 9.62344 30.7335C9.28247 30.3925 9.09091 29.9301 9.09091 29.4478C9.09091 28.9656 9.28247 28.5032 9.62344 28.1622C9.96442 27.8212 10.4269 27.6297 10.9091 27.6297H29.0909C29.5731 27.6297 30.0356 27.8212 30.3766 28.1622C30.7175 28.5032 30.9091 28.9656 30.9091 29.4478C30.9091 29.9301 30.7175 30.3925 30.3766 30.7335C30.0356 31.0745 29.5731 31.266 29.0909 31.266Z" fill="black"/>
<path d="M38.5479 18.1513L22.2059 1.80926C22.1741 1.77766 22.1337 1.75617 22.0897 1.74748C22.0457 1.73879 22.0002 1.74329 21.9588 1.76041C21.9174 1.77753 21.8819 1.80652 21.857 1.84372C21.832 1.88092 21.8185 1.92467 21.8184 1.96948V16.7206C21.8184 17.2028 22.0099 17.6653 22.3509 18.0063C22.6919 18.3472 23.1543 18.5388 23.6365 18.5388H38.3877C38.4325 18.5386 38.4762 18.5252 38.5134 18.5002C38.5506 18.4752 38.5796 18.4398 38.5968 18.3984C38.6139 18.357 38.6184 18.3114 38.6097 18.2675C38.601 18.2235 38.5795 18.1831 38.5479 18.1513Z" fill="black"/>
</svg>
