<svg width="40" height="44" viewBox="0 0 40 44" fill="none" xmlns="http://www.w3.org/2000/svg">
<path d="M27.369 3.48953C25.4979 1.4694 22.8845 0.356934 20 0.356934C17.1001 0.356934 14.478 1.46267 12.6156 3.4703C10.7329 5.50005 9.81567 8.25862 10.031 11.2374C10.458 17.1141 14.9299 21.8948 20 21.8948C25.0701 21.8948 29.5344 17.1151 29.968 11.2393C30.1863 8.28747 29.2632 5.53466 27.369 3.48953ZM36.9226 43.4326H3.07739C2.63439 43.4383 2.19567 43.3453 1.79316 43.1602C1.39065 42.975 1.03447 42.7025 0.750529 42.3624C0.125546 41.6153 -0.12637 40.5952 0.0601637 39.5635C0.87168 35.0617 3.4043 31.2801 7.38496 28.6253C10.9214 26.2687 15.4011 24.9716 20 24.9716C24.5989 24.9716 29.0786 26.2696 32.615 28.6253C36.5957 31.2791 39.1283 35.0607 39.9398 39.5625C40.1264 40.5942 39.8745 41.6144 39.2495 42.3615C38.9656 42.7017 38.6095 42.9744 38.207 43.1597C37.8045 43.345 37.3657 43.4382 36.9226 43.4326Z" fill="black"/>
</svg>
