<svg width="16" height="16" viewBox="0 0 16 16" fill="none" xmlns="http://www.w3.org/2000/svg">
<g clip-path="url(#clip0_849_69)">
<path d="M8 -0.000976562C3.58172 -0.000976562 0 3.58074 0 7.99902C0 12.4173 3.58172 15.999 8 15.999C12.4183 15.999 16 12.4173 16 7.99902C16 3.58074 12.4183 -0.000976562 8 -0.000976562ZM12.1581 5.05952L10.7372 11.8428C10.72 11.9248 10.6825 12.0012 10.6281 12.065C10.5736 12.1287 10.5041 12.1778 10.4257 12.2076C10.3474 12.2375 10.2628 12.2472 10.1798 12.2358C10.0967 12.2244 10.0179 12.1924 9.95044 12.1426L7.88369 10.6156L6.63156 11.7969C6.61517 11.8124 6.59587 11.8244 6.57477 11.8323C6.55368 11.8402 6.53122 11.8439 6.5087 11.843C6.48618 11.8422 6.46406 11.8368 6.44363 11.8273C6.42319 11.8178 6.40486 11.8044 6.38969 11.7877L6.36278 11.7581L6.58034 9.65268L10.5017 6.06984C10.5211 6.05215 10.5332 6.02783 10.5355 6.00169C10.5379 5.97555 10.5303 5.94947 10.5144 5.92861C10.4985 5.90775 10.4753 5.89362 10.4495 5.88901C10.4236 5.88439 10.397 5.88963 10.3748 5.90368L5.35984 9.07774L3.2 8.35237C3.14257 8.33307 3.09252 8.29648 3.05671 8.24762C3.0209 8.19875 3.00109 8.14 2.99999 8.07942C2.9989 8.01885 3.01657 7.95942 3.05059 7.90929C3.08461 7.85916 3.13331 7.82079 3.19 7.79943L11.6406 4.61602C11.7058 4.59149 11.7764 4.58492 11.845 4.597C11.9136 4.60909 11.9777 4.63937 12.0306 4.6847C12.0834 4.73002 12.1232 4.78872 12.1456 4.85466C12.168 4.9206 12.1724 4.99135 12.1581 5.05952Z" fill="#29AAEC"/>
</g>
<defs>
<clipPath id="clip0_849_69">
<rect width="16" height="16" fill="white"/>
</clipPath>
</defs>
</svg>
