<svg width="14" height="24" viewBox="0 0 14 24" fill="none" xmlns="http://www.w3.org/2000/svg">
<g clip-path="url(#clip0_781_1543)">
<path d="M6.99865 0.429688C6.45947 1.04175 6.13088 1.84241 6.13088 2.72175C6.1627 4.65225 6.39931 6.58043 6.42013 8.50688C6.46294 10.3061 5.92377 11.9953 5.26774 13.6441C5.04906 14.0994 4.81303 14.5448 4.57641 14.9914L3.8822 14.8514C3.25567 14.7265 2.8484 14.1173 2.97394 13.4908C3.08327 12.9429 3.56575 12.5594 4.10377 12.5594L4.35716 12.5865L3.79195 7.86589C3.60741 5.76589 2.52327 3.92043 0.928315 2.72291C0.654101 2.51696 0.363109 2.32837 0.0605469 2.16233V18.9218H3.92964C4.21889 20.4896 5.08319 21.8607 6.29807 22.7979C6.58675 22.9969 6.82914 23.2595 7.00327 23.5661C7.17683 23.2595 7.41922 22.9969 7.70848 22.7979C8.92336 21.8584 9.78765 20.4902 10.0769 18.9218H13.946V2.16233C13.6434 2.32837 13.3524 2.51696 13.0782 2.72291C11.4815 3.92217 10.3997 5.76589 10.2146 7.86589L9.64939 12.5865L9.90278 12.5594C10.4408 12.5617 10.9233 12.9423 11.0326 13.4908C11.1576 14.1173 10.7503 14.7259 10.1243 14.8514L9.43013 14.9914C9.19352 14.5454 8.95691 14.0999 8.73881 13.6441C8.0822 11.9965 7.54303 10.3072 7.58584 8.50688C7.60666 6.57465 7.84327 4.6482 7.87509 2.72175C7.87509 1.84241 7.5465 1.04407 7.00732 0.429688H6.99865ZM1.21352 4.57762C1.96212 5.45638 2.46484 6.55035 2.61352 7.75539L3.07633 11.6488C2.48336 11.9438 2.03501 12.4853 1.86493 13.1408H1.20947V4.57878L1.21352 4.57762ZM12.7838 4.57762V13.1396H12.1283C11.9594 12.4847 11.5099 11.9432 10.9169 11.6476L11.3797 7.75423C11.5296 6.55035 12.0323 5.45522 12.7797 4.57589L12.7838 4.57762ZM6.99865 12.4049C7.30931 13.4213 7.73683 14.3892 8.26848 15.2847C7.76286 15.438 7.32319 15.7365 6.99865 16.1386C6.6741 15.7365 6.23443 15.4386 5.72881 15.2842C6.26046 14.3869 6.68798 13.4213 6.99865 12.4049ZM1.21352 14.2989H1.86898C2.07551 15.0979 2.69914 15.7284 3.48881 15.9489L4.04476 16.0756C3.89608 16.6147 3.81451 17.1805 3.81451 17.7706H1.21121V14.2995L1.21352 14.2989ZM12.1301 14.2989H12.7855V17.77H10.1822C10.1822 17.1834 10.1006 16.6147 9.95195 16.075L10.5079 15.9483C11.3005 15.7279 11.9235 15.0967 12.1277 14.2984L12.1301 14.2989ZM5.17633 16.3411C5.87807 16.44 6.41898 17.0411 6.41898 17.7694H4.9727C4.9727 17.2737 5.04617 16.7952 5.17633 16.3411ZM8.81922 16.3411C8.94939 16.7952 9.02286 17.2725 9.02286 17.7694H7.57658C7.57658 17.0399 8.11749 16.44 8.81922 16.3411ZM5.10518 18.927H6.42013V21.3626C5.78377 20.6944 5.32096 19.8584 5.10518 18.927ZM7.57716 18.927H8.89212C8.67922 19.8584 8.21526 20.6956 7.57716 21.3626V18.927Z" fill="#424354"/>
</g>
<defs>
<clipPath id="clip0_781_1543">
<rect width="14" height="23.2562" fill="white" transform="translate(0 0.371826)"/>
</clipPath>
</defs>
</svg>
