<svg width="18" height="15" viewBox="0 0 18 15" fill="none" xmlns="http://www.w3.org/2000/svg">
<path d="M15.6002 14.6943C15.5214 14.6945 15.4434 14.679 15.3706 14.6488C15.2978 14.6186 15.2317 14.5743 15.1761 14.5185L1.97656 1.31889C1.86879 1.20546 1.8096 1.05442 1.8116 0.897964C1.8136 0.741512 1.87664 0.592031 1.98728 0.481394C2.09792 0.370757 2.2474 0.307716 2.40385 0.305713C2.5603 0.30371 2.71135 0.362903 2.82478 0.470672L16.0244 13.6702C16.1082 13.7542 16.1653 13.861 16.1884 13.9774C16.2116 14.0937 16.1997 14.2143 16.1543 14.3239C16.1089 14.4335 16.032 14.5272 15.9334 14.5931C15.8348 14.6591 15.7189 14.6943 15.6002 14.6943ZM8.98771 12.2944C7.43188 12.2944 5.93155 11.8339 4.52835 10.9257C3.25077 10.1007 2.10068 8.91915 1.20221 7.51332V7.51032C1.94993 6.43898 2.76891 5.53301 3.64863 4.80253C3.65659 4.79588 3.66308 4.78765 3.66769 4.77836C3.67231 4.76907 3.67495 4.75892 3.67544 4.74856C3.67593 4.7382 3.67427 4.72785 3.67056 4.71816C3.66685 4.70848 3.66117 4.69966 3.65388 4.69228L2.9069 3.94643C2.89363 3.93305 2.8758 3.92516 2.85697 3.92432C2.83814 3.92349 2.81969 3.92978 2.80528 3.94193C1.87081 4.72941 1.00347 5.69538 0.214866 6.82634C0.0791896 7.02107 0.00446735 7.25175 0.000194106 7.48904C-0.00407914 7.72634 0.0622896 7.95956 0.190867 8.15905C1.18121 9.70887 2.45579 11.0142 3.87625 11.9333C5.47557 12.9694 7.19676 13.4944 8.98771 13.4944C9.95441 13.4914 10.9143 13.3321 11.8301 13.0226C11.8422 13.0185 11.853 13.0114 11.8616 13.002C11.8702 12.9925 11.8762 12.981 11.8791 12.9686C11.882 12.9562 11.8816 12.9432 11.8781 12.931C11.8746 12.9187 11.868 12.9075 11.859 12.8985L11.0498 12.0893C11.0311 12.0711 11.0081 12.0581 10.9829 12.0515C10.9577 12.045 10.9313 12.0451 10.9061 12.0518C10.2794 12.2132 9.63485 12.2947 8.98771 12.2944ZM17.8067 6.84209C16.8145 5.30764 15.5271 4.00418 14.0842 3.07234C12.4878 2.04037 10.7254 1.49476 8.98771 1.49476C8.03125 1.49646 7.0819 1.6591 6.17942 1.97587C6.1674 1.98006 6.15664 1.98723 6.14815 1.99673C6.13967 2.00622 6.13374 2.01771 6.13093 2.03013C6.12811 2.04255 6.12851 2.05548 6.13207 2.0677C6.13563 2.07992 6.14225 2.09104 6.1513 2.09999L6.9594 2.90809C6.97821 2.92658 7.00157 2.93979 7.02711 2.94637C7.05266 2.95296 7.07948 2.95269 7.10489 2.94559C7.71873 2.77954 8.3518 2.69519 8.98771 2.69472C10.5135 2.69472 12.0094 3.16083 13.4332 4.08218C14.7348 4.92215 15.8984 6.10261 16.7991 7.49457C16.7997 7.49543 16.8001 7.49648 16.8001 7.49757C16.8001 7.49866 16.7997 7.49971 16.7991 7.50057C16.1453 8.52988 15.3339 9.45018 14.3947 10.2279C14.3866 10.2345 14.38 10.2427 14.3754 10.252C14.3707 10.2613 14.368 10.2715 14.3674 10.2819C14.3669 10.2923 14.3686 10.3027 14.3723 10.3125C14.376 10.3222 14.3817 10.3311 14.389 10.3385L15.1353 11.0843C15.1485 11.0977 15.1662 11.1056 15.1849 11.1065C15.2037 11.1074 15.2221 11.1012 15.2365 11.0892C16.2392 10.2449 17.1072 9.25252 17.8104 8.1463C17.9347 7.95136 18.0004 7.72484 17.9998 7.49364C17.9991 7.26245 17.9321 7.03631 17.8067 6.84209Z" fill="#81818D"/>
<path d="M9.00103 3.89453C8.73139 3.89439 8.46258 3.92457 8.19968 3.98453C8.1864 3.98729 8.17412 3.99359 8.16414 4.00278C8.15416 4.01196 8.14686 4.02368 8.14301 4.03668C8.13917 4.04969 8.13892 4.06349 8.14229 4.07663C8.14567 4.08976 8.15254 4.10174 8.16218 4.11127L12.3842 8.33214C12.3937 8.34178 12.4057 8.34865 12.4188 8.35203C12.432 8.3554 12.4458 8.35515 12.4588 8.35131C12.4718 8.34746 12.4835 8.34016 12.4927 8.33018C12.5019 8.3202 12.5082 8.30792 12.5109 8.29464C12.6311 7.76742 12.631 7.2199 12.5106 6.69273C12.3902 6.16556 12.1525 5.6723 11.8153 5.24957C11.4781 4.82684 11.05 4.4855 10.5628 4.25092C10.0756 4.01633 9.54178 3.89452 9.00103 3.89453ZM5.61789 6.65669C5.60835 6.64705 5.59638 6.64018 5.58325 6.6368C5.57011 6.63343 5.55631 6.63367 5.5433 6.63752C5.5303 6.64137 5.51858 6.64867 5.50939 6.65865C5.50021 6.66863 5.4939 6.68091 5.49115 6.69419C5.35516 7.2883 5.37223 7.90721 5.54077 8.49292C5.70932 9.07863 6.02381 9.61196 6.45477 10.0429C6.88574 10.4739 7.41907 10.7884 8.00477 10.9569C8.59048 11.1255 9.20939 11.1425 9.80351 11.0066C9.81678 11.0038 9.82907 10.9975 9.83905 10.9883C9.84903 10.9791 9.85633 10.9674 9.86017 10.9544C9.86402 10.9414 9.86427 10.9276 9.8609 10.9145C9.85752 10.9013 9.85065 10.8893 9.841 10.8798L5.61789 6.65669Z" fill="#81818D"/>
</svg>
