<svg width="147" height="23" viewBox="0 0 147 23" fill="none" xmlns="http://www.w3.org/2000/svg">
<circle cx="9.3913" cy="11.5436" r="9.3913" fill="#0832FF"/>
<circle cx="16.695" cy="7.36978" r="6.26087" fill="#FFD338" stroke="white" stroke-width="2.08696"/>
<path d="M33.4355 19V5.11621H43.4844V7.57715H36.4092V10.4277H42.2539V12.8887H36.4092V16.5391H43.4844V19H33.4355ZM45.125 14.3857V12.0273H51.6875V14.3857H45.125ZM53.3281 11.9453C53.3281 7.26953 56.0967 4.80859 60.3008 4.80859C64.5049 4.80859 66.4326 7.29004 66.4326 9.77148H63.418C63.418 8.37695 62.29 7.26953 60.3213 7.26953C58.3525 7.26953 56.5273 8.54102 56.5273 11.9453C56.5273 15.3496 58.3525 16.8467 60.3213 16.8467C62.29 16.8467 63.4795 15.5342 63.4795 14.1396H66.4531C66.4531 16.6211 64.5049 19.3076 60.3008 19.3076C56.0967 19.3076 53.3281 16.6211 53.3281 11.9453ZM67.6836 7.57715V5.11621H78.8604V7.57715H74.7588V19H71.7852V7.57715H67.6836ZM79.6807 5.11621H82.9209L87.002 12.3965L90.3447 5.11621H93.626L88.5195 15.3701C87.3301 17.585 85.71 19 83.4541 19H82.4492V16.416H83.3926C84.2334 16.416 85.0537 16.0469 85.4844 15.0625L79.6807 5.11621ZM97.7686 16.5391H102.649V7.57715H98.6504V10.1406C98.6504 13.4629 98.1582 15.4727 97.7686 16.5391ZM93.4209 16.5391H94.7949C95.1846 15.3906 95.6768 13.2373 95.6768 9.58691V5.11621H105.623V16.5391H107.264V22.6299H104.29V19H96.3945V22.6299H93.4209V16.5391ZM109.109 19V5.11621H119.158V7.57715H112.083V10.4277H117.928V12.8887H112.083V16.5391H119.158V19H109.109ZM121.414 19V5.11621H124.388V10.4277H130.438V5.11621H133.411V19H130.438V12.8887H124.388V19H121.414ZM135.257 7.57715V5.11621H146.434V7.57715H142.332V19H139.358V7.57715H135.257Z" fill="#03041B"/>
</svg>
